<svg preserveAspectRatio="none" width="100%" height="100%" overflow="visible" style="display: block;" viewBox="0 0 19.2786 19.2786" fill="none" xmlns="http://www.w3.org/2000/svg">
<g id="chat">
<path id="Vector" d="M9.63975 16.8691C11.0696 16.8691 12.4673 16.4451 13.6562 15.6508C14.8451 14.8564 15.7717 13.7273 16.3189 12.4063C16.8661 11.0853 17.0092 9.63166 16.7303 8.22928C16.4513 6.82691 15.7628 5.53874 14.7518 4.52768C13.7407 3.51662 12.4525 2.82808 11.0501 2.54913C9.64777 2.27018 8.19417 2.41335 6.87316 2.96053C5.55215 3.50771 4.42306 4.43433 3.62868 5.62321C2.83429 6.81209 2.41029 8.20983 2.41029 9.63968C2.41029 10.7964 2.6818 11.8888 3.16537 12.8584C3.52925 13.5902 3.02319 14.5774 2.83041 15.2979C2.7877 15.4573 2.78769 15.6251 2.83038 15.7845C2.87308 15.9438 2.95698 16.0891 3.07364 16.2058C3.1903 16.3225 3.33561 16.4064 3.49498 16.449C3.65434 16.4917 3.82214 16.4917 3.9815 16.449C4.70203 16.2562 5.68926 15.7502 6.42104 16.1149C7.42092 16.6125 8.52287 16.8707 9.63975 16.8691Z" stroke="var(--stroke-0, white)" stroke-width="1.20491" stroke-linecap="round" stroke-linejoin="round"/>
</g>
</svg>
