<svg preserveAspectRatio="none" width="100%" height="100%" overflow="visible" style="display: block;" viewBox="0 0 19.2786 16.8687" fill="none" xmlns="http://www.w3.org/2000/svg">
<g id="send">
<path id="Vector" d="M11.2463 7.02895L8.83648 9.13755M16.2973 2.1307C16.3735 2.10768 16.4556 2.10389 16.5342 2.11977C16.6127 2.13564 16.6846 2.17053 16.7416 2.22046C16.7985 2.27038 16.8383 2.33333 16.8563 2.4021C16.8744 2.47087 16.8699 2.54269 16.8435 2.60935L12.0849 14.5088C12.0564 14.58 12.0042 14.642 11.935 14.6868C11.8657 14.7316 11.7827 14.7572 11.6966 14.7603C11.6105 14.7633 11.5254 14.7436 11.4523 14.7038C11.3792 14.664 11.3214 14.6058 11.2865 14.5369L8.70073 9.44681C8.65754 9.36197 8.58 9.29412 8.48304 9.25633L2.66574 6.99311C2.58725 6.96245 2.52108 6.9119 2.47577 6.84799C2.43045 6.78408 2.40808 6.70976 2.41154 6.63461C2.415 6.55946 2.44413 6.48695 2.49517 6.42644C2.54621 6.36593 2.61682 6.3202 2.69787 6.29516L16.2973 2.1307Z" stroke="var(--stroke-0, white)" stroke-width="1.06114" stroke-linecap="round" stroke-linejoin="round"/>
</g>
</svg>
