<svg preserveAspectRatio="none" width="100%" height="100%" overflow="visible" style="display: block;" viewBox="0 0 836.672 75.2578" fill="none" xmlns="http://www.w3.org/2000/svg">
<g id="CREAKE&#227;&#128;&#128;CREAKE">
<path id="Vector" d="M836.672 74.0391H795.793V1.21875L835.047 1.21875V11.4766L807.879 11.4766V32.0938L832.914 32.0938V42.3008L807.879 42.3008V63.832L836.672 63.832V74.0391Z" fill="var(--fill-0, #F4F4F4)"/>
<path id="Vector_2" d="M787.312 74.0391H771.57L746.23 40.7266C745.283 39.474 744.707 38.6276 744.504 38.1875H744.301V74.0391H732.215V1.21875L744.301 1.21875V35.4453H744.504C744.91 34.7005 745.486 33.8711 746.23 32.957L770.656 1.21875L785.129 1.21875L756.539 36.1563L787.312 74.0391Z" fill="var(--fill-0, #F4F4F4)"/>
<path id="Vector_3" d="M722.16 74.0391L708.906 74.0391L702.355 55.5039L673.715 55.5039L667.418 74.0391H654.215L681.484 1.21875L695.094 1.21875L722.16 74.0391ZM699.156 45.6523L689.051 16.6055C688.746 15.6576 688.424 14.1341 688.086 12.0352H687.883C687.578 13.9648 687.24 15.4883 686.867 16.6055L676.863 45.6523L699.156 45.6523Z" fill="var(--fill-0, #F4F4F4)"/>
<path id="Vector_4" d="M649.391 74.0391H608.512V1.21875L647.766 1.21875V11.4766L620.598 11.4766V32.0938L645.633 32.0938V42.3008L620.598 42.3008V63.832L649.391 63.832V74.0391Z" fill="var(--fill-0, #F4F4F4)"/>
<path id="Vector_5" d="M599.98 74.0391H585.863L574.234 54.5391C573.185 52.7448 572.152 51.2214 571.137 49.9688C570.155 48.6823 569.139 47.6328 568.09 46.8203C567.074 46.0078 565.957 45.4154 564.738 45.043C563.52 44.6706 562.148 44.4844 560.625 44.4844H555.75V74.0391H543.715V1.21875L567.684 1.21875C571.103 1.21875 574.251 1.625 577.129 2.4375C580.007 3.25 582.512 4.48568 584.645 6.14453C586.777 7.76953 588.436 9.81771 589.621 12.2891C590.84 14.7266 591.449 17.5872 591.449 20.8711C591.449 23.444 591.06 25.8138 590.281 27.9805C589.536 30.1133 588.453 32.026 587.031 33.7188C585.643 35.3776 583.951 36.7995 581.953 37.9844C579.99 39.1693 577.772 40.0833 575.301 40.7266V40.9297C576.621 41.6745 577.772 42.5039 578.754 43.418C579.736 44.2982 580.667 45.2122 581.547 46.1602C582.427 47.1081 583.29 48.1914 584.137 49.4102C585.017 50.5951 585.982 51.9831 587.031 53.5742L599.98 74.0391ZM555.75 11.0195V34.6836H565.805C567.667 34.6836 569.376 34.3958 570.934 33.8203C572.525 33.2448 573.896 32.4154 575.047 31.332C576.198 30.2487 577.095 28.9284 577.738 27.3711C578.382 25.8138 578.703 24.0703 578.703 22.1406C578.703 18.6536 577.603 15.9284 575.402 13.9648C573.202 12.0013 570.036 11.0195 565.906 11.0195H555.75Z" fill="var(--fill-0, #F4F4F4)"/>
<path id="Vector_6" d="M529.902 70.9922C524.418 73.8359 517.596 75.2578 509.438 75.2578C498.875 75.2578 490.411 71.9232 484.047 65.2539C477.682 58.5846 474.5 49.8333 474.5 39C474.5 27.3542 478.072 17.9427 485.215 10.7656C492.392 3.58854 501.448 0 512.383 0C519.424 0 525.264 0.998698 529.902 2.99609V14.9805C524.993 12.069 519.577 10.6133 513.652 10.6133C505.764 10.6133 499.366 13.1354 494.457 18.1797C489.582 23.224 487.145 29.9609 487.145 38.3906C487.145 46.4141 489.43 52.8125 494 57.5859C498.57 62.3255 504.579 64.6953 512.027 64.6953C518.9 64.6953 524.858 63.0703 529.902 59.8203V70.9922Z" fill="var(--fill-0, #F4F4F4)"/>
<path id="Vector_7" d="M362.172 74.0391H321.293V1.21875L360.547 1.21875V11.4766L333.379 11.4766V32.0938L358.414 32.0938V42.3008L333.379 42.3008V63.832L362.172 63.832V74.0391Z" fill="var(--fill-0, #F4F4F4)"/>
<path id="Vector_8" d="M312.812 74.0391H297.07L271.73 40.7266C270.783 39.474 270.207 38.6276 270.004 38.1875H269.801V74.0391H257.715V1.21875L269.801 1.21875V35.4453H270.004C270.41 34.7005 270.986 33.8711 271.73 32.957L296.156 1.21875L310.629 1.21875L282.039 36.1563L312.812 74.0391Z" fill="var(--fill-0, #F4F4F4)"/>
<path id="Vector_9" d="M247.66 74.0391L234.406 74.0391L227.855 55.5039L199.215 55.5039L192.918 74.0391H179.715L206.984 1.21875L220.594 1.21875L247.66 74.0391ZM224.656 45.6523L214.551 16.6055C214.246 15.6576 213.924 14.1341 213.586 12.0352H213.383C213.078 13.9648 212.74 15.4883 212.367 16.6055L202.363 45.6523L224.656 45.6523Z" fill="var(--fill-0, #F4F4F4)"/>
<path id="Vector_10" d="M174.891 74.0391H134.012V1.21875L173.266 1.21875V11.4766L146.098 11.4766V32.0938L171.133 32.0938V42.3008L146.098 42.3008V63.832L174.891 63.832V74.0391Z" fill="var(--fill-0, #F4F4F4)"/>
<path id="Vector_11" d="M125.48 74.0391H111.363L99.7344 54.5391C98.6849 52.7448 97.6523 51.2214 96.6367 49.9688C95.6549 48.6823 94.6393 47.6328 93.5898 46.8203C92.5742 46.0078 91.457 45.4154 90.2383 45.043C89.0195 44.6706 87.6484 44.4844 86.125 44.4844H81.25L81.25 74.0391H69.2148L69.2148 1.21875L93.1836 1.21875C96.6029 1.21875 99.7513 1.625 102.629 2.4375C105.507 3.25 108.012 4.48568 110.145 6.14453C112.277 7.76953 113.936 9.81771 115.121 12.2891C116.34 14.7266 116.949 17.5872 116.949 20.8711C116.949 23.444 116.56 25.8138 115.781 27.9805C115.036 30.1133 113.953 32.026 112.531 33.7188C111.143 35.3776 109.451 36.7995 107.453 37.9844C105.49 39.1693 103.272 40.0833 100.801 40.7266V40.9297C102.121 41.6745 103.272 42.5039 104.254 43.418C105.236 44.2982 106.167 45.2122 107.047 46.1602C107.927 47.1081 108.79 48.1914 109.637 49.4102C110.517 50.5951 111.482 51.9831 112.531 53.5742L125.48 74.0391ZM81.25 11.0195V34.6836H91.3047C93.1667 34.6836 94.8763 34.3958 96.4336 33.8203C98.0247 33.2448 99.3958 32.4154 100.547 31.332C101.698 30.2487 102.595 28.9284 103.238 27.3711C103.882 25.8138 104.203 24.0703 104.203 22.1406C104.203 18.6536 103.103 15.9284 100.902 13.9648C98.7018 12.0013 95.5365 11.0195 91.4062 11.0195H81.25Z" fill="var(--fill-0, #F4F4F4)"/>
<path id="Vector_12" d="M55.4023 70.9922C49.918 73.8359 43.0964 75.2578 34.9375 75.2578C24.375 75.2578 15.9115 71.9232 9.54688 65.2539C3.18229 58.5846 0 49.8333 0 39C0 27.3542 3.57161 17.9427 10.7148 10.7656C17.8919 3.58854 26.9479 0 37.8828 0C44.9245 0 50.7643 0.998698 55.4023 2.99609V14.9805C50.4935 12.069 45.0768 10.6133 39.1523 10.6133C31.2643 10.6133 24.8659 13.1354 19.957 18.1797C15.082 23.224 12.6445 29.9609 12.6445 38.3906C12.6445 46.4141 14.9297 52.8125 19.5 57.5859C24.0703 62.3255 30.0794 64.6953 37.5273 64.6953C44.3997 64.6953 50.3581 63.0703 55.4023 59.8203V70.9922Z" fill="var(--fill-0, #F4F4F4)"/>
</g>
</svg>
