<svg preserveAspectRatio="none" width="100%" height="100%" overflow="visible" style="display: block;" viewBox="0 0 19.2786 19.2786" fill="none" xmlns="http://www.w3.org/2000/svg">
<g id="dots-solid">
<path id="Vector" d="M9.63785 8.83607C9.79763 8.83607 9.95086 8.89955 10.0638 9.01253C10.1768 9.12551 10.2403 9.27875 10.2403 9.43853V9.84017C10.2403 9.99995 10.1768 10.1532 10.0638 10.2662C9.95086 10.3791 9.79763 10.4426 9.63785 10.4426C9.47807 10.4426 9.32483 10.3791 9.21185 10.2662C9.09886 10.1532 9.03539 9.99995 9.03539 9.84017V9.43853C9.03539 9.27875 9.09886 9.12551 9.21185 9.01253C9.32483 8.89955 9.47807 8.83607 9.63785 8.83607ZM12.8509 8.83607C13.0107 8.83607 13.164 8.89955 13.2769 9.01253C13.3899 9.12551 13.4534 9.27875 13.4534 9.43853V9.84017C13.4534 9.99995 13.3899 10.1532 13.2769 10.2662C13.164 10.3791 13.0107 10.4426 12.8509 10.4426C12.6912 10.4426 12.5379 10.3791 12.4249 10.2662C12.312 10.1532 12.2485 9.99995 12.2485 9.84017V9.43853C12.2485 9.27875 12.312 9.12551 12.4249 9.01253C12.5379 8.89955 12.6912 8.83607 12.8509 8.83607ZM6.42475 8.83607C6.58454 8.83607 6.73777 8.89955 6.85075 9.01253C6.96374 9.12551 7.02721 9.27875 7.02721 9.43853V9.84017C7.02721 9.99995 6.96374 10.1532 6.85075 10.2662C6.73777 10.3791 6.58454 10.4426 6.42475 10.4426C6.26497 10.4426 6.11174 10.3791 5.99875 10.2662C5.88577 10.1532 5.8223 9.99995 5.8223 9.84017V9.43853C5.8223 9.27875 5.88577 9.12551 5.99875 9.01253C6.11174 8.89955 6.26497 8.83607 6.42475 8.83607Z" fill="var(--fill-0, white)"/>
</g>
</svg>
