<svg preserveAspectRatio="none" width="100%" height="100%" overflow="visible" style="display: block;" viewBox="0 0 445.75 92.625" fill="none" xmlns="http://www.w3.org/2000/svg">
<g id="CREAKE">
<path id="Vector" opacity="0" d="M445.75 91.125H395.438V1.5L443.75 1.5V14.125L410.312 14.125V39.5L441.125 39.5V52.0625L410.312 52.0625V78.5625H445.75V91.125Z" fill="var(--fill-0, #F4F4F4)"/>
<path id="Vector_2" opacity="0" d="M385 91.125L365.625 91.125L334.438 50.125C333.271 48.5833 332.562 47.5417 332.312 47H332.062V91.125H317.188V1.5L332.062 1.5V43.625H332.312C332.812 42.7083 333.521 41.6875 334.438 40.5625L364.5 1.5L382.312 1.5L347.125 44.5L385 91.125Z" fill="var(--fill-0, #F4F4F4)"/>
<path id="Vector_3" opacity="0" d="M304.812 91.125H288.5L280.438 68.3125H245.188L237.438 91.125H221.188L254.75 1.5L271.5 1.5L304.812 91.125ZM276.5 56.1875L264.062 20.4375C263.688 19.2708 263.292 17.3958 262.875 14.8125H262.625C262.25 17.1875 261.833 19.0625 261.375 20.4375L249.062 56.1875L276.5 56.1875Z" fill="var(--fill-0, #F4F4F4)"/>
<path id="Vector_4" opacity="0" d="M215.25 91.125H164.938V1.5L213.25 1.5V14.125L179.812 14.125V39.5L210.625 39.5V52.0625L179.812 52.0625V78.5625H215.25V91.125Z" fill="var(--fill-0, #F4F4F4)"/>
<path id="Vector_5" opacity="0" d="M154.438 91.125L137.062 91.125L122.75 67.125C121.458 64.9167 120.188 63.0417 118.938 61.5C117.729 59.9167 116.479 58.625 115.188 57.625C113.938 56.625 112.562 55.8958 111.062 55.4375C109.562 54.9792 107.875 54.75 106 54.75H100L100 91.125H85.1875L85.1875 1.5L114.688 1.5C118.896 1.5 122.771 2 126.312 3C129.854 4 132.938 5.52083 135.562 7.5625C138.188 9.5625 140.229 12.0833 141.688 15.125C143.188 18.125 143.938 21.6458 143.938 25.6875C143.938 28.8542 143.458 31.7708 142.5 34.4375C141.583 37.0625 140.25 39.4167 138.5 41.5C136.792 43.5417 134.708 45.2917 132.25 46.75C129.833 48.2083 127.104 49.3333 124.062 50.125V50.375C125.688 51.2917 127.104 52.3125 128.312 53.4375C129.521 54.5208 130.667 55.6458 131.75 56.8125C132.833 57.9792 133.896 59.3125 134.938 60.8125C136.021 62.2708 137.208 63.9792 138.5 65.9375L154.438 91.125ZM100 13.5625V42.6875H112.375C114.667 42.6875 116.771 42.3333 118.688 41.625C120.646 40.9167 122.333 39.8958 123.75 38.5625C125.167 37.2292 126.271 35.6042 127.062 33.6875C127.854 31.7708 128.25 29.625 128.25 27.25C128.25 22.9583 126.896 19.6042 124.188 17.1875C121.479 14.7708 117.583 13.5625 112.5 13.5625L100 13.5625Z" fill="var(--fill-0, #F4F4F4)"/>
<path id="Vector_6" opacity="0" d="M68.1875 87.375C61.4375 90.875 53.0417 92.625 43 92.625C30 92.625 19.5833 88.5208 11.75 80.3125C3.91667 72.1042 0 61.3333 0 48C0 33.6667 4.39583 22.0833 13.1875 13.25C22.0208 4.41667 33.1667 0 46.625 0C55.2917 0 62.4792 1.22917 68.1875 3.6875V18.4375C62.1458 14.8542 55.4792 13.0625 48.1875 13.0625C38.4792 13.0625 30.6042 16.1667 24.5625 22.375C18.5625 28.5833 15.5625 36.875 15.5625 47.25C15.5625 57.125 18.375 65 24 70.875C29.625 76.7083 37.0208 79.625 46.1875 79.625C54.6458 79.625 61.9792 77.625 68.1875 73.625V87.375Z" fill="var(--fill-0, #F4F4F4)"/>
</g>
</svg>
